<?xml version="1.0" standalone="no"?>
<!DOCTYPE svg PUBLIC "-//W3C//DTD SVG 20010904//EN"
 "http://www.w3.org/TR/2001/REC-SVG-20010904/DTD/svg10.dtd">
<svg version="1.0" xmlns="http://www.w3.org/2000/svg"
 width="404.000000pt" height="212.000000pt" viewBox="0 0 404.000000 212.000000"
 preserveAspectRatio="xMidYMid meet">

<g transform="translate(0.000000,212.000000) scale(0.100000,-0.100000)"
fill="#000000" stroke="none">
<path d="M611 1936 c-31 -32 -34 -42 -52 -163 -51 -350 -129 -1124 -129 -1274
0 -124 6 -134 81 -134 117 0 161 95 229 504 17 101 35 192 41 202 13 24 41 31
118 27 l64 -3 48 -130 c58 -153 157 -359 194 -403 31 -37 48 -40 69 -11 18 27
11 51 -85 301 -101 261 -147 392 -245 700 -88 281 -109 332 -140 359 -18 15
-130 59 -151 59 -5 0 -24 -15 -42 -34z m285 -640 c26 -92 27 -99 11 -111 -18
-13 -107 -29 -116 -20 -5 6 25 242 36 286 6 22 8 21 24 -16 10 -22 30 -84 45
-139z"/>
<path d="M2991 1287 c-13 -34 -14 -40 -2 -32 10 6 18 -28 24 -100 2 -22 4 -6
4 35 1 41 -2 86 -7 100 l-7 25 -12 -28z"/>
<path d="M3532 1265 c-92 -24 -237 -83 -227 -93 7 -7 -15 -32 -27 -32 -6 0 -4
8 3 17 8 9 -7 3 -33 -15 -52 -36 -88 -81 -87 -109 0 -15 1 -15 9 3 17 43 25
31 16 -21 -6 -33 -13 -50 -18 -42 -5 8 -8 5 -8 -9 0 -27 126 -148 146 -140 7
3 16 -4 19 -15 7 -22 25 -26 25 -5 0 7 -27 37 -60 65 -85 74 -108 127 -79 184
34 67 184 156 306 182 111 24 295 32 319 14 31 -23 31 -101 0 -154 -30 -51
-31 -55 -11 -55 22 0 75 88 75 126 0 41 -33 82 -84 105 -58 26 -168 24 -284
-6z m353 -100 c0 -24 -4 -48 -10 -54 -7 -7 -10 11 -10 54 0 43 3 61 10 54 6
-5 10 -30 10 -54z m-631 -46 c-10 -11 -28 -26 -39 -31 -14 -8 -12 -2 9 21 33
34 61 44 30 10z m-26 -217 c33 -43 24 -41 -19 4 -18 20 -28 35 -20 32 8 -2 25
-18 39 -36z"/>
<path d="M2307 1208 c-14 -29 -28 -71 -32 -93 -4 -22 -11 -44 -15 -50 -5 -5
-16 -37 -25 -70 -23 -78 -42 -115 -60 -115 -23 0 -35 -34 -36 -107 -1 -80 -11
-128 -21 -101 -16 40 -20 141 -8 178 14 41 5 114 -9 76 -7 -18 -8 -18 -14 -2
-12 30 -8 75 9 107 8 17 13 37 10 45 -18 46 -89 -72 -89 -148 -1 -27 -4 -43
-8 -37 -9 16 -16 1 -24 -54 -14 -91 -25 -58 -25 75 0 152 -18 163 -22 13 l-2
-90 -6 75 -6 75 -3 -65 c-2 -36 -6 -90 -9 -120 l-7 -55 -42 0 c-36 -1 -43 2
-44 20 0 13 -4 9 -10 -12 -12 -40 -39 -44 -74 -9 -48 48 -82 232 -50 271 16
20 16 20 6 -2 -19 -38 -12 -36 22 8 17 24 37 43 42 43 16 1 47 -70 55 -127 7
-51 8 -51 9 -12 l2 40 14 -30 c11 -25 14 -26 14 -9 2 35 -29 124 -50 145 -28
28 -73 25 -98 -7 -26 -34 -41 -23 -41 30 0 91 -47 98 -100 16 -38 -60 -89
-177 -90 -206 0 -23 -25 -40 -35 -24 -4 6 -24 10 -47 10 -34 0 -39 -3 -33 -17
12 -29 17 -227 6 -243 -17 -25 -24 -3 -26 77 -2 72 -2 74 5 23 6 -47 7 -42 6
38 -1 54 -5 92 -11 93 -17 1 -23 -41 -24 -158 l-1 -112 31 -3 c28 -3 29 -4 16
-23 -13 -17 -17 -18 -33 -5 -15 13 -17 13 -12 0 8 -26 36 -22 55 7 10 15 32
47 49 70 18 23 38 59 44 80 19 59 70 151 88 158 38 14 59 -82 46 -212 -5 -55
-4 -74 5 -69 6 4 11 36 11 77 l0 71 33 -28 c38 -32 87 -54 122 -54 26 0 33
-14 14 -26 -14 -8 -79 -143 -79 -164 0 -8 9 -21 19 -27 24 -15 31 -1 31 63 0
29 4 43 10 39 17 -11 40 15 40 44 l0 26 -20 -25 c-27 -34 -25 -16 2 23 22 33
40 49 46 43 4 -4 -27 -126 -35 -139 -3 -5 -9 -3 -13 4 -6 8 -11 -1 -15 -27 -8
-52 -17 -67 -46 -75 -22 -6 -23 -7 -5 -14 32 -14 70 41 107 154 21 67 41 108
59 126 l27 26 6 -76 c9 -99 24 -126 21 -38 -2 38 0 58 2 45 3 -12 14 -26 24
-32 15 -8 19 -5 24 22 3 17 6 46 6 65 0 19 7 41 15 49 13 14 15 11 15 -21 0
-45 25 -105 43 -105 17 0 27 21 27 53 l0 21 16 -22 c11 -16 25 -22 53 -22 44
0 51 7 91 86 l29 59 2 -55 2 -55 11 75 11 75 5 -65 c5 -62 6 -65 32 -68 34 -3
50 19 83 118 29 85 64 151 83 158 22 7 13 -305 -9 -321 -22 -17 -39 -51 -39
-81 0 -48 42 -139 87 -188 125 -132 245 -67 348 188 20 48 40 93 46 101 25 30
100 2 117 -44 5 -15 17 -49 26 -74 38 -107 70 -105 38 2 -12 39 -19 75 -16 80
3 5 31 16 62 25 31 9 91 32 132 51 56 26 84 33 109 29 26 -4 31 -2 23 6 -17
17 -15 38 3 38 22 0 19 -48 -5 -103 -37 -84 -1 -177 70 -177 41 0 90 22 115
51 12 14 14 19 4 11 -19 -15 -29 1 -29 46 0 25 1 25 15 6 17 -22 20 -12 5 16
-12 22 -1 31 48 39 53 9 37 26 -22 23 l-53 -3 -57 87 c-31 48 -56 93 -56 100
0 9 12 14 35 14 39 0 46 14 16 30 -32 17 -79 12 -102 -11 -17 -17 -19 -28 -13
-65 6 -42 5 -44 -19 -44 -14 0 -28 -7 -31 -15 -11 -29 -114 -68 -192 -73 l-72
-4 -15 33 c-14 31 -29 106 -44 219 -5 39 -7 42 -14 20 -7 -24 -7 -24 -8 5 -1
17 -5 37 -11 45 -17 28 -23 -16 -8 -67 15 -49 14 -73 -3 -73 -5 0 -9 12 -10
28 0 24 -1 25 -9 7 -6 -15 -9 -8 -10 30 l-2 50 -9 -43 c-11 -57 -12 -58 -66
-71 -41 -11 -62 -26 -144 -112 -97 -99 -132 -119 -146 -83 -3 9 0 81 7 160 11
130 11 146 -4 169 -30 46 -86 26 -146 -53 -65 -85 -80 -91 -101 -40 -7 18 -15
26 -17 18 -3 -9 -9 -5 -18 11 l-13 24 -1 -23 c0 -25 -44 -117 -60 -127 -16
-10 -12 13 16 110 15 50 30 113 34 140 l7 50 14 -50 14 -50 6 75 c5 48 4 77
-3 81 -7 4 -6 15 3 30 l13 24 7 -30 8 -30 -2 29 c-3 47 -23 41 -50 -16z m-673
-64 c3 -9 6 -25 5 -37 -1 -20 -2 -20 -9 3 -5 17 -8 -1 -9 -58 -1 -69 -4 -84
-18 -88 -15 -5 -49 -19 -75 -32 -17 -8 -6 33 27 98 40 79 44 96 14 60 l-20
-25 12 25 c13 28 49 70 60 70 4 0 10 -7 13 -16z m106 -67 c0 -2 -10 -12 -22
-23 l-23 -19 19 23 c18 21 26 27 26 19z m80 -71 c0 -12 -5 -7 -19 24 -11 24
-11 24 3 6 9 -11 16 -24 16 -30z m-295 -6 c-9 -16 -18 -30 -21 -30 -2 0 2 14
11 30 9 17 18 30 21 30 2 0 -2 -13 -11 -30z m532 -42 c-3 -8 -6 -5 -6 6 -1 11
2 17 5 13 3 -3 4 -12 1 -19z m-565 -40 c-7 -7 -12 -8 -12 -2 0 14 12 26 19 19
2 -3 -1 -11 -7 -17z m1424 -115 c-9 -71 -29 -95 -74 -91 -33 3 -37 6 -33 28 4
33 37 97 53 103 7 3 24 6 37 6 23 1 23 -1 17 -46z m25 -4 c-9 -23 -10 -23 -10
-2 -1 12 2 30 6 40 6 15 8 15 11 2 1 -8 -2 -26 -7 -40z m-961 -119 c0 -20 -2
-22 -10 -10 -5 8 -10 26 -10 40 0 20 2 22 10 10 5 -8 10 -26 10 -40z m1530
-16 c0 -16 -16 -19 -25 -4 -8 13 4 32 16 25 5 -4 9 -13 9 -21z m-776 -19 c40
-27 111 -34 148 -14 18 10 19 8 13 -13 -25 -81 -105 -238 -121 -238 -2 0 12
28 31 63 19 35 35 70 35 78 -1 8 -10 -4 -21 -26 -12 -22 -37 -64 -57 -92 l-35
-53 -59 0 c-52 0 -62 3 -97 36 -53 47 -91 125 -91 185 0 26 5 51 11 54 6 4 38
9 72 12 34 3 73 12 87 19 35 18 42 17 84 -11z m385 -125 c0 -23 -26 42 -33 81
-4 26 -2 23 13 -16 11 -27 20 -57 20 -65z m461 56 l0 -34 -61 -4 c-64 -3 -80
4 -78 37 1 16 2 17 6 3 4 -16 6 -16 19 -3 9 8 27 15 42 15 15 0 34 5 42 10 25
16 30 12 30 -24z m-1848 -73 c-3 -16 -7 -22 -10 -15 -4 13 4 42 11 42 2 0 2
-12 -1 -27z"/>
<path d="M2857 597 c-4 -10 -7 -26 -7 -35 1 -15 2 -15 11 1 6 10 9 25 7 35 -3
16 -4 15 -11 -1z"/>
<path d="M2496 530 c10 -39 54 -117 82 -142 18 -17 16 -10 -11 28 -20 28 -45
70 -57 95 -11 24 -17 33 -14 19z"/>
<path d="M2973 1150 c0 -25 2 -35 4 -22 2 12 2 32 0 45 -2 12 -4 2 -4 -23z"/>
<path d="M1351 1070 c0 -25 4 -65 8 -90 8 -43 9 -42 9 25 0 39 -3 79 -8 90 -6
15 -9 9 -9 -25z"/>
<path d="M2341 1054 c0 -11 3 -14 6 -6 3 7 2 16 -1 19 -3 4 -6 -2 -5 -13z"/>
<path d="M1333 1000 c0 -36 2 -50 4 -32 2 17 2 47 0 65 -2 17 -4 3 -4 -33z"/>
<path d="M2092 990 c0 -14 2 -19 5 -12 2 6 2 18 0 25 -3 6 -5 1 -5 -13z"/>
<path d="M1841 870 c0 -8 4 -24 9 -35 l9 -20 0 20 c0 11 -4 27 -9 35 -9 13
-10 13 -9 0z"/>
<path d="M1820 823 c0 -4 5 -15 10 -23 8 -13 10 -13 10 2 0 9 -4 20 -10 23 -5
3 -10 3 -10 -2z"/>
<path d="M2123 780 c0 -25 2 -35 4 -22 2 12 2 32 0 45 -2 12 -4 2 -4 -23z"/>
<path d="M2440 673 c-35 -45 -113 -213 -113 -244 0 -15 -4 -26 -8 -23 -4 2 -9
-6 -11 -18 -4 -20 -6 -18 -15 12 l-11 35 -1 -30 c-1 -17 4 -36 11 -43 9 -9 9
-15 0 -24 -10 -10 -15 -10 -22 2 -8 13 -10 13 -10 -2 0 -20 12 -29 27 -20 21
14 190 368 180 378 -3 3 -15 -8 -27 -23z m-65 -162 c-19 -38 -28 -41 -14 -5
13 35 20 46 26 41 2 -3 -3 -19 -12 -36z m-34 -78 c-12 -20 -14 -14 -5 12 4 9
9 14 11 11 3 -2 0 -13 -6 -23z"/>
<path d="M1623 600 c0 -47 2 -66 4 -42 2 23 2 61 0 85 -2 23 -4 4 -4 -43z"/>
<path d="M2262 580 c0 -14 2 -19 5 -12 2 6 2 18 0 25 -3 6 -5 1 -5 -13z"/>
<path d="M2291 550 c0 -26 -6 -51 -12 -57 -7 -7 -7 -13 0 -17 12 -8 24 50 18
90 -3 21 -4 16 -6 -16z"/>
<path d="M1613 415 c0 -44 2 -61 4 -37 2 23 2 59 0 80 -2 20 -4 1 -4 -43z"/>
<path d="M2253 395 c0 -22 2 -30 4 -17 2 12 2 30 0 40 -3 9 -5 -1 -4 -23z"/>
</g>
</svg>
