<?xml version="1.0" standalone="no"?>
<!DOCTYPE svg PUBLIC "-//W3C//DTD SVG 20010904//EN"
 "http://www.w3.org/TR/2001/REC-SVG-20010904/DTD/svg10.dtd">
<svg version="1.0" xmlns="http://www.w3.org/2000/svg"
 width="500.000000pt" height="500.000000pt" viewBox="0 0 500.000000 500.000000"
 preserveAspectRatio="xMidYMid meet">

<g transform="translate(0.000000,500.000000) scale(0.100000,-0.100000)"
fill="#000000" stroke="none">
<path d="M1464 3342 c-35 -30 -27 14 -79 -437 -37 -323 -54 -490 -60 -596 -7
-137 -1 -149 69 -149 83 0 119 84 166 380 29 186 20 170 99 170 l67 0 32 -88
c43 -121 104 -248 141 -300 27 -37 34 -41 51 -32 11 6 20 20 20 30 0 11 -24
82 -54 157 -116 298 -132 344 -240 694 -38 124 -64 169 -99 169 -12 1 -33 7
-47 15 -32 18 -30 19 -66 -13z m206 -456 c18 -56 28 -102 23 -107 -5 -5 -29
-12 -54 -15 l-46 -6 14 103 c14 106 20 135 28 128 2 -2 18 -49 35 -103z"/>
<path d="M3244 2856 c-3 -8 -4 -21 -1 -28 3 -7 7 -2 8 12 2 14 6 -15 9 -65 l6
-90 2 87 c2 81 -10 121 -24 84z"/>
<path d="M3725 2855 c-5 -2 -44 -11 -85 -20 -137 -31 -272 -121 -269 -178 1
-20 2 -20 6 -2 3 11 10 25 15 30 8 7 9 4 4 -8 -3 -10 -6 -33 -7 -50 0 -27 -2
-29 -9 -12 -8 19 -9 19 -9 -2 -1 -13 17 -38 50 -67 49 -44 78 -60 63 -33 -4 7
-3 9 2 4 5 -5 9 -14 9 -19 0 -6 5 -13 12 -15 19 -7 8 28 -13 39 -10 6 -36 27
-56 46 -70 66 -39 140 82 200 32 17 57 31 55 33 -2 2 6 5 18 5 12 1 51 8 87
17 36 8 90 13 120 10 30 -2 62 -4 71 -4 9 0 16 -6 17 -12 1 -7 5 -27 8 -45 5
-26 1 -41 -15 -62 -25 -34 -27 -52 -6 -44 23 9 55 68 55 101 0 54 -67 94 -155
92 -22 0 -44 -2 -50 -4z m195 -90 c0 -19 -9 -43 -21 -56 l-21 -24 16 25 c19
29 20 63 4 93 -10 20 -10 21 5 8 10 -7 17 -28 17 -46z m-435 -3 c-6 -4 -27
-23 -49 -42 -21 -19 -35 -27 -30 -18 9 16 72 68 83 68 3 0 1 -3 -4 -8z m-40
-219 c12 -10 14 -14 5 -8 -29 18 -60 48 -60 59 0 6 8 1 18 -11 9 -12 26 -30
37 -40z"/>
<path d="M2730 2788 c-13 -29 -23 -65 -24 -80 -1 -14 -4 -24 -7 -23 -3 2 -14
-27 -24 -66 -14 -51 -24 -69 -36 -69 -25 0 -28 -9 -31 -94 -2 -79 -11 -98 -22
-45 -9 45 -7 131 2 125 4 -2 6 12 3 32 -3 28 -5 32 -11 18 -6 -18 -7 -18 -13
-2 -11 29 -8 55 9 82 12 17 14 28 7 35 -14 14 -46 -18 -39 -38 3 -8 2 -12 -3
-9 -14 9 -31 -51 -25 -87 3 -25 2 -27 -5 -12 -7 16 -10 12 -16 -28 -14 -88
-26 -63 -23 46 2 58 0 103 -4 100 -5 -2 -9 -52 -10 -111 l-2 -107 -6 110 -6
110 -2 -112 c-2 -104 -3 -112 -23 -118 -14 -5 -25 -2 -30 6 -7 11 -9 9 -10 -6
-1 -14 -4 -10 -9 10 l-8 30 -1 -27 c-1 -22 -6 -28 -24 -28 -35 0 -52 26 -72
111 -13 58 -15 81 -6 97 14 26 14 35 1 27 -6 -4 -10 11 -10 38 0 58 -21 78
-52 51 -28 -25 -100 -175 -94 -197 2 -9 0 -15 -4 -12 -5 3 -11 -1 -13 -7 -3
-8 -6 -6 -6 5 -1 14 -8 17 -36 15 -23 -1 -31 -5 -25 -13 12 -14 16 -167 6
-184 -16 -26 -26 12 -24 94 l2 80 6 -85 6 -85 2 88 c2 71 -1 87 -13 87 -12 0
-15 -17 -15 -89 0 -49 -3 -97 -6 -106 -5 -13 -1 -15 20 -11 28 5 31 0 17 -23
-8 -12 -12 -13 -25 -1 -14 11 -16 10 -10 -4 9 -25 33 -19 46 12 7 15 22 36 34
47 12 11 29 45 39 75 19 61 50 110 69 110 21 0 34 -77 27 -157 -3 -39 -3 -69
1 -66 5 2 8 30 8 63 l0 58 30 -28 c29 -27 83 -45 101 -34 5 3 9 1 9 -5 0 -5
-5 -13 -10 -16 -13 -8 -50 -80 -61 -117 -4 -16 -4 -26 1 -23 5 3 11 1 15 -5
13 -21 23 1 20 47 -2 26 -1 43 3 38 14 -20 30 -13 34 15 2 16 1 27 -4 24 -17
-11 -7 14 13 32 21 19 22 19 16 -1 -3 -11 -12 -42 -18 -69 -10 -40 -14 -46
-20 -30 -7 19 -8 19 -10 -1 -1 -11 -2 -27 -3 -35 -2 -24 -17 -42 -32 -36 -8 3
-14 1 -14 -4 0 -6 9 -10 20 -10 24 0 52 51 74 135 9 37 24 67 38 79 l23 18 5
-68 c4 -51 9 -69 19 -69 8 0 15 6 17 13 1 7 0 8 -3 2 -14 -28 -23 -2 -21 63 1
55 2 61 5 24 2 -26 8 -45 14 -42 5 4 9 -2 10 -12 1 -10 5 2 10 27 5 25 7 56 4
68 -4 14 -2 21 4 18 5 -4 12 2 14 11 3 10 5 -3 6 -28 2 -73 50 -111 52 -41 0
23 1 24 8 7 10 -25 64 -29 84 -6 7 9 20 32 27 51 21 57 26 54 24 -12 l-3 -63
10 75 c13 104 19 110 15 15 -2 -44 -1 -67 1 -52 3 22 7 26 17 17 25 -20 43 1
65 74 25 83 57 140 71 131 6 -4 9 -52 8 -118 -3 -95 -6 -114 -21 -126 -29 -21
-36 -52 -21 -99 38 -129 140 -188 219 -128 35 27 83 113 110 194 20 62 34 71
79 50 26 -13 34 -25 44 -66 14 -54 36 -91 47 -80 4 4 0 28 -9 54 -9 26 -16 53
-16 60 0 7 24 17 53 24 28 7 78 26 110 43 44 23 61 27 69 19 7 -7 17 -12 23
-12 5 0 2 5 -7 11 -10 5 -15 16 -11 25 4 11 9 12 18 4 16 -13 13 -39 -9 -72
-23 -36 -10 -116 20 -130 36 -17 103 1 121 32 14 22 14 23 0 7 -14 -16 -15
-15 -20 20 -5 44 11 63 55 63 15 0 28 5 28 11 0 8 -15 10 -44 7 l-45 -5 -46
68 c-49 70 -51 95 -9 85 13 -4 24 -2 24 3 0 17 -38 32 -65 25 -34 -8 -48 -35
-35 -68 10 -28 1 -39 -26 -29 -12 4 -15 3 -10 -6 9 -14 -84 -59 -129 -61 -71
-5 -85 -1 -85 23 0 13 -3 17 -8 10 -4 -6 -8 16 -8 50 -1 34 -6 63 -10 64 -5 2
-8 24 -7 51 l1 47 -7 -40 -8 -40 -2 37 c0 20 -5 40 -11 43 -14 9 -13 -38 2
-70 9 -19 9 -28 0 -37 -9 -9 -12 -5 -13 17 l-1 30 -9 -30 c-6 -21 -7 -9 -4 40
l3 70 -10 -61 c-10 -61 -11 -62 -49 -68 -38 -6 -79 -39 -127 -105 -13 -17 -37
-38 -52 -46 -46 -24 -52 -5 -38 112 6 54 8 111 5 125 -15 58 -74 40 -126 -39
-36 -55 -52 -57 -71 -8 -9 20 -9 20 -11 0 -1 -14 -4 -11 -9 10 l-8 30 -1 -28
c-1 -27 -49 -112 -58 -103 -3 3 9 50 26 104 17 56 28 108 24 119 -3 10 -2 15
2 10 5 -4 12 -26 16 -50 l7 -42 0 45 c0 25 3 54 8 64 5 13 3 21 -4 24 -9 3 -9
9 1 25 11 20 13 18 18 -28 l7 -50 -2 49 c0 27 -6 51 -12 53 -6 2 -22 -20 -34
-49z m-494 -114 l1 -79 -4 70 c-2 39 -7 73 -11 77 -4 4 -6 -24 -4 -62 3 -63 2
-70 -15 -70 -10 0 -29 -7 -41 -16 -31 -21 -28 -6 13 79 33 66 32 71 -3 20 -10
-15 -11 -14 -1 7 16 35 41 61 53 57 7 -2 11 -36 12 -83z m-90 -41 c-8 -15 -15
-25 -16 -21 0 12 23 58 27 54 3 -2 -2 -17 -11 -33z m401 -35 c-3 -7 -5 -2 -5
12 0 14 2 19 5 13 2 -7 2 -19 0 -25z m-426 -25 c-12 -20 -14 -14 -5 12 4 9 9
14 11 11 3 -2 0 -13 -6 -23z m386 -65 c-3 -8 -6 -5 -6 6 -1 11 2 17 5 13 3 -3
4 -12 1 -19z m686 -10 c-13 -68 -20 -78 -57 -78 -33 0 -34 1 -26 29 17 60 34
78 72 80 14 1 16 -5 11 -31z m18 -9 c-6 -16 -10 -18 -10 -7 -1 22 12 55 16 42
2 -6 -1 -22 -6 -35z m-722 -94 l0 -20 -9 20 c-5 11 -9 27 -9 35 -1 13 0 13 9
0 5 -8 9 -24 9 -35z m1147 -10 c1 -8 -4 -11 -12 -8 -15 6 -18 16 -7 26 8 9 16
1 19 -18z m-575 -16 c16 -16 30 -20 62 -17 23 2 46 8 50 13 14 17 -4 -37 -32
-100 -16 -33 -38 -71 -51 -85 l-22 -25 16 25 c32 50 57 102 52 107 -3 3 -10
-7 -16 -23 -6 -16 -23 -45 -38 -64 -15 -19 -26 -38 -25 -41 1 -4 -22 -6 -52
-6 -51 0 -57 2 -89 38 -38 42 -60 98 -54 144 3 28 5 29 62 32 33 1 64 7 70 13
16 16 44 12 67 -11z m285 -107 c-5 -5 -36 89 -35 107 0 9 9 -11 19 -44 11 -32
18 -61 16 -63z m342 63 c-3 -13 0 -26 6 -28 6 -2 -13 -3 -41 -2 -37 2 -51 -1
-46 -9 4 -6 -1 -5 -10 3 -9 7 -17 23 -16 35 1 19 2 18 9 -4 5 -17 8 -19 9 -7
1 12 9 17 29 17 15 0 34 5 42 10 22 14 23 13 18 -15z m-1356 -7 c-7 -7 -12 -8
-12 -2 0 6 3 14 7 17 3 4 9 5 12 2 2 -3 -1 -11 -7 -17z m-31 -64 c-5 -16 -10
-21 -10 -12 -1 18 10 51 15 45 2 -1 -1 -16 -5 -33z"/>
<path d="M2871 2344 c0 -11 3 -14 6 -6 3 7 2 16 -1 19 -3 4 -6 -2 -5 -13z"/>
<path d="M3145 2330 c-4 -12 -5 -24 -2 -27 3 -2 8 5 12 17 4 12 5 24 2 27 -3
2 -8 -5 -12 -17z"/>
<path d="M2871 2301 c-1 -24 38 -96 66 -122 23 -21 23 -19 -5 16 -17 22 -38
58 -46 80 -8 22 -15 34 -15 26z"/>
<path d="M3233 2750 c0 -30 2 -43 4 -27 2 15 2 39 0 55 -2 15 -4 2 -4 -28z"/>
<path d="M2018 2662 c5 -99 10 -107 11 -20 0 42 -3 79 -7 82 -4 2 -6 -25 -4
-62z"/>
<path d="M2763 2680 c0 -30 2 -43 4 -27 2 15 2 39 0 55 -2 15 -4 2 -4 -28z"/>
<path d="M2285 2697 c-10 -8 -15 -19 -11 -25 4 -6 2 -21 -4 -32 -18 -34 -3
-22 19 15 11 19 25 35 31 35 16 0 40 -63 42 -112 l1 -43 7 50 7 50 2 -40 c2
-22 5 -34 8 -27 10 24 -8 99 -28 121 -23 24 -47 27 -74 8z m25 -1 c0 -2 -8
-10 -17 -17 -16 -13 -17 -12 -4 4 13 16 21 21 21 13z m59 -55 c0 -10 -4 -7
-10 8 -5 14 -13 30 -17 36 -4 6 1 2 11 -8 9 -11 17 -27 16 -36z"/>
<path d="M2003 2635 c0 -38 2 -53 4 -32 2 20 2 52 0 70 -2 17 -4 1 -4 -38z"/>
<path d="M2572 2630 c0 -14 2 -19 5 -12 2 6 2 18 0 25 -3 6 -5 1 -5 -13z"/>
<path d="M2388 2523 c5 -21 7 -23 10 -9 2 10 0 22 -6 28 -6 6 -7 0 -4 -19z"/>
<path d="M2593 2475 c0 -27 2 -38 4 -22 2 15 2 37 0 50 -2 12 -4 0 -4 -28z"/>
<path d="M2370 2501 c0 -6 4 -13 10 -16 6 -3 7 1 4 9 -7 18 -14 21 -14 7z"/>
<path d="M2218 2349 c-2 -39 0 -73 3 -75 3 -2 7 30 8 71 3 95 -6 98 -11 4z"/>
<path d="M2830 2390 c-37 -52 -100 -198 -93 -217 3 -10 3 -15 -2 -11 -4 4 -11
22 -15 40 l-8 33 -1 -37 c-1 -20 4 -38 11 -40 6 -2 8 -10 4 -16 -15 -25 -25
-10 -29 43 l-4 55 1 -57 c1 -76 22 -77 58 -3 108 219 134 289 78 210z m-44
-117 c-8 -15 -15 -25 -16 -21 0 12 23 58 27 54 3 -2 -2 -17 -11 -33z m-30 -70
c-8 -15 -15 -25 -16 -21 0 12 23 58 27 54 3 -2 -2 -17 -11 -33z"/>
<path d="M3700 2375 c0 -5 5 -17 10 -25 5 -8 10 -10 10 -5 0 6 -5 17 -10 25
-5 8 -10 11 -10 5z"/>
<path d="M2703 2315 c0 -27 2 -38 4 -22 2 15 2 37 0 50 -2 12 -4 0 -4 -28z"/>
<path d="M2722 2302 c-1 -37 -5 -51 -14 -46 -7 5 -8 3 -3 -5 14 -24 26 6 22
55 l-3 49 -2 -53z"/>
<path d="M2193 2245 c0 -33 2 -45 4 -27 2 18 2 45 0 60 -2 15 -4 0 -4 -33z"/>
<path d="M2208 2200 c-1 -33 0 -60 5 -60 4 0 7 27 7 60 0 77 -7 77 -12 0z"/>
</g>
</svg>
